# Blender v2.93.5 OBJ File: 'proyecto.blend'
# www.blender.org
mtllib Paredes2.mtl
o Pared_pasillo25_Plano.007
v -6.000000 5.200000 17.000000
v -6.000000 0.000000 17.000000
v -2.000000 5.200000 17.000000
v -2.000000 0.000000 17.000000
vt 0.000000 0.000000
vt 1.000000 0.000000
vt 1.000000 1.000000
vt 0.000000 1.000000
vn 0.0000 0.0000 1.0000
usemtl None
s off
f 1/1/1 2/2/1 4/3/1 3/4/1
o Pared_pasillo23_Plano.009
v -6.000000 5.200000 21.000000
v -6.000000 0.000000 21.000000
v -2.000000 5.200000 21.000000
v -2.000000 0.000000 21.000000
vt 0.000000 0.000000
vt 1.000000 0.000000
vt 1.000000 1.000000
vt 0.000000 1.000000
vn 0.0000 0.0000 1.0000
usemtl None
s off
f 5/5/2 6/6/2 8/7/2 7/8/2
o Pared_pasillo21_Plano.010
v 2.000000 5.200000 21.000000
v 2.000000 0.000000 21.000000
v 2.000000 5.200000 17.000000
v 2.000000 0.000000 17.000000
vt 0.000000 0.000000
vt 1.000000 0.000000
vt 1.000000 1.000000
vt 0.000000 1.000000
vn 1.0000 -0.0000 0.0000
usemtl None
s off
f 9/9/3 10/10/3 12/11/3 11/12/3
o Pared_pasillo22_Plano.011
v -2.000000 5.200000 21.000000
v -2.000000 0.000000 21.000000
v 2.000000 5.200000 21.000000
v 2.000000 0.000000 21.000000
vt 0.000000 0.000000
vt 1.000000 0.000000
vt 1.000000 1.000000
vt 0.000000 1.000000
vn 0.0000 0.0000 1.0000
usemtl None
s off
f 13/13/4 14/14/4 16/15/4 15/16/4
o Pared_pasillo24_Plano.013
v -11.000000 5.200000 21.000000
v -11.000000 0.000000 21.000000
v -6.000000 5.200000 21.000000
v -6.000000 0.000000 21.000000
vt 0.000000 0.000000
vt 1.000000 0.000000
vt 1.000000 1.000000
vt 0.000000 1.000000
vn 0.0000 0.0000 1.0000
usemtl None
s off
f 17/17/5 18/18/5 20/19/5 19/20/5
o Pared_pasillo27_Plano.014
v -11.000000 5.200000 17.000000
v -11.000000 0.000000 17.000000
v -6.000000 5.200000 17.000000
v -6.000000 0.000000 17.000000
vt 0.000000 0.000000
vt 1.000000 0.000000
vt 1.000000 1.000000
vt 0.000000 1.000000
vn 0.0000 0.0000 1.0000
usemtl None
s off
f 21/21/6 22/22/6 24/23/6 23/24/6
o Pared_pasillo26_Plano.015
v -14.000000 5.200000 21.000000
v -14.000000 0.000000 21.000000
v -11.000000 5.200000 21.000000
v -11.000000 0.000000 21.000000
vt 0.000000 0.000000
vt 1.000000 0.000000
vt 1.000000 1.000000
vt 0.000000 1.000000
vn 0.0000 0.0000 1.0000
usemtl None
s off
f 25/25/7 26/26/7 28/27/7 27/28/7
o Pared_pasillo28_Plano.016
v -14.000000 5.200000 17.000000
v -14.000000 0.000000 17.000000
v -11.000000 5.200000 17.000000
v -11.000000 0.000000 17.000000
vt 0.000000 0.000000
vt 1.000000 0.000000
vt 1.000000 1.000000
vt 0.000000 1.000000
vn 0.0000 0.0000 1.0000
usemtl None
s off
f 29/29/8 30/30/8 32/31/8 31/32/8
o Pared_pasillo210_Plano.018
v -14.000000 5.200000 17.000000
v -14.000000 0.000000 17.000000
v -14.000000 5.200000 16.000000
v -14.000000 0.000000 16.000000
vt 0.000000 0.000000
vt 1.000000 0.000000
vt 1.000000 1.000000
vt 0.000000 1.000000
vn 1.0000 0.0000 0.0000
usemtl None
s off
f 33/33/9 34/34/9 36/35/9 35/36/9
o Pared_pasillo211_Plano.019
v -18.000000 5.200000 17.000000
v -18.000000 0.000000 17.000000
v -18.000000 5.200000 16.000000
v -18.000000 0.000000 16.000000
vt 0.000000 0.000000
vt 1.000000 0.000000
vt 1.000000 1.000000
vt 0.000000 1.000000
vn 1.0000 0.0000 0.0000
usemtl None
s off
f 37/37/10 38/38/10 40/39/10 39/40/10
o Pared_pasillo29_Plano.020
v -18.000000 5.200000 16.000000
v -18.000000 0.000000 16.000000
v -14.000000 5.200000 16.000000
v -14.000000 0.000000 16.000000
vt 0.000000 0.000000
vt 1.000000 0.000000
vt 1.000000 1.000000
vt 0.000000 1.000000
vn 0.0000 0.0000 1.0000
usemtl None
s off
f 41/41/11 42/42/11 44/43/11 43/44/11
o Pared_pasillo212_Plano.021
v -21.000000 5.200000 17.000000
v -21.000000 0.000000 17.000000
v -18.000000 5.200000 17.000000
v -18.000000 0.000000 17.000000
vt 0.000000 0.000000
vt 1.000000 0.000000
vt 1.000000 1.000000
vt 0.000000 1.000000
vn 0.0000 0.0000 1.0000
usemtl None
s off
f 45/45/12 46/46/12 48/47/12 47/48/12
o Pared_pasillo213_Plano.022
v -21.000000 5.200000 21.000000
v -21.000000 0.000000 21.000000
v -18.000000 5.200000 21.000000
v -18.000000 0.000000 21.000000
vt 0.000000 0.000000
vt 1.000000 0.000000
vt 1.000000 1.000000
vt 0.000000 1.000000
vn 0.0000 0.0000 1.0000
usemtl None
s off
f 49/49/13 50/50/13 52/51/13 51/52/13
o Pared_pasillo214_Plano.023
v -18.000000 5.200000 25.000000
v -18.000000 0.000000 25.000000
v -18.000000 5.200000 21.000000
v -18.000000 0.000000 21.000000
vt 0.000000 0.000000
vt 1.000000 0.000000
vt 1.000000 1.000000
vt 0.000000 1.000000
vn 1.0000 0.0000 0.0000
usemtl None
s off
f 53/53/14 54/54/14 56/55/14 55/56/14
o Pared_pasillo215_Plano.024
v -14.000000 5.200000 25.000000
v -14.000000 0.000000 25.000000
v -14.000000 5.200000 21.000000
v -14.000000 0.000000 21.000000
vt 0.000000 0.000000
vt 1.000000 0.000000
vt 1.000000 1.000000
vt 0.000000 1.000000
vn 1.0000 0.0000 0.0000
usemtl None
s off
f 57/57/15 58/58/15 60/59/15 59/60/15
o Pared_pasillo216_Plano.025
v -18.000000 5.200000 25.000000
v -18.000000 0.000000 25.000000
v -14.000000 5.200000 25.000000
v -14.000000 0.000000 25.000000
vt 0.000000 0.000000
vt 1.000000 0.000000
vt 1.000000 1.000000
vt 0.000000 1.000000
vn 0.0000 0.0000 1.0000
usemtl None
s off
f 61/61/16 62/62/16 64/63/16 63/64/16
o Pared_pasillo217_Plano.026
v -21.000000 5.200000 21.000000
v -21.000000 0.000000 21.000000
v -21.000000 5.200000 17.000000
v -21.000000 0.000000 17.000000
vt 0.000000 0.000000
vt 1.000000 0.000000
vt 1.000000 1.000000
vt 0.000000 1.000000
vn 1.0000 0.0000 0.0000
usemtl None
s off
f 65/65/17 66/66/17 68/67/17 67/68/17
o Pared_pasillo218_Plano.031
v -2.000000 4.600000 17.000000
v 2.000000 4.600000 17.000000
v -2.000000 5.200000 17.000000
v 2.000000 5.200000 17.000000
vt 0.000000 0.000000
vt 1.000000 0.000000
vt 1.000000 1.000000
vt 0.000000 1.000000
vn 0.0000 0.0000 1.0000
usemtl None
s off
f 69/69/18 70/70/18 72/71/18 71/72/18
o Pared_pasillo219_Plano.034
v -18.000000 5.200000 25.000000
v -14.000000 5.200000 25.000000
v -18.000000 10.400000 25.000000
v -14.000000 10.400000 25.000000
vt 0.000000 0.000000
vt 1.000000 0.000000
vt 1.000000 1.000000
vt 0.000000 1.000000
vn 0.0000 0.0000 1.0000
usemtl None
s off
f 73/73/19 74/74/19 76/75/19 75/76/19
