# Blender v2.93.5 OBJ File: 'proyecto.blend'
# www.blender.org
o ParedInicial_Plano.037
v 4.000000 8.000000 -4.029037
v 4.000000 0.000000 -4.029037
v 4.000000 8.000000 -10.029037
v 4.000000 0.000000 -10.029037
vt 0.000000 0.000000
vt 1.000000 0.000000
vt 1.000000 1.000000
vt 0.000000 1.000000
vn 1.0000 -0.0000 0.0000
s off
f 1/1/1 2/2/1 4/3/1 3/4/1
o ParedInicial3_Plano.038
v -4.000000 8.000000 -4.000000
v -4.000000 0.000000 -4.000000
v -4.000000 8.000000 -10.000000
v -4.000000 0.000000 -10.000000
vt 0.000000 0.000000
vt 1.000000 0.000000
vt 1.000000 1.000000
vt 0.000000 1.000000
vn 1.0000 -0.0000 0.0000
s off
f 5/5/2 6/6/2 8/7/2 7/8/2
o ParedInicial2_Plano.039
v -4.000000 0.000000 -10.029037
v 4.000000 0.000000 -10.029037
v -4.000000 8.000000 -10.029037
v 4.000000 8.000000 -10.029037
vt 0.000000 0.000000
vt 1.000000 0.000000
vt 1.000000 1.000000
vt 0.000000 1.000000
vn 0.0000 0.0000 1.0000
s off
f 9/9/3 10/10/3 12/11/3 11/12/3
o ParedInicial4_Plano.042
v 2.000000 0.000000 -4.029037
v 4.000000 0.000000 -4.029037
v 2.000000 8.000000 -4.029037
v 4.000000 8.000000 -4.029037
v -4.000000 0.000000 -4.029037
v -2.000000 0.000000 -4.029037
v -4.000000 8.000000 -4.029037
v -2.000000 8.000000 -4.029037
v -2.000000 4.600000 -4.029037
v 2.000000 4.600000 -4.029037
v -2.000000 8.000000 -4.029037
v 2.000000 8.000000 -4.029037
vt 0.000000 0.000000
vt 1.000000 0.000000
vt 1.000000 1.000000
vt 0.000000 1.000000
vt 0.000000 0.000000
vt 1.000000 0.000000
vt 1.000000 1.000000
vt 0.000000 1.000000
vt 0.000000 0.000000
vt 1.000000 0.000000
vt 1.000000 1.000000
vt 0.000000 1.000000
vn 0.0000 0.0000 1.0000
s off
f 13/13/4 14/14/4 16/15/4 15/16/4
f 17/17/4 18/18/4 20/19/4 19/20/4
f 21/21/4 22/22/4 24/23/4 23/24/4
