# Blender v2.93.5 OBJ File: ''
# www.blender.org
mtllib Techos2.mtl
o Techo_pasillo22_Cubo.005
v -21.655912 5.199997 16.000000
v -21.655912 5.999998 16.000002
v -21.655912 5.999999 8.000001
v -21.655912 5.199998 8.000001
v -10.344088 5.999999 8.000001
v -10.344088 5.199998 8.000001
v -10.344088 5.999998 16.000002
v -10.344088 5.199997 16.000000
v -14.000000 5.199996 21.000000
v -14.000000 5.999997 21.000002
v -14.000000 5.999998 15.000001
v -14.000000 5.199997 15.000001
v 2.000000 5.999998 15.000001
v 2.000000 5.199997 15.000001
v 2.000000 5.999997 21.000002
v 2.000000 5.199996 21.000000
vt 0.047477 0.868525
vt 0.020585 0.868525
vt 0.020585 0.599601
vt 0.047477 0.599601
vt 0.952523 0.020584
vt 0.979415 0.020584
vt 0.979415 0.400837
vt 0.952523 0.400837
vt 0.088646 0.599601
vt 0.115538 0.599601
vt 0.115538 0.868525
vt 0.088646 0.868525
vt 0.952523 0.442005
vt 0.979415 0.442005
vt 0.979415 0.822258
vt 0.952523 0.822258
vt 0.669660 0.163621
vt 0.669660 0.896160
vt 0.151589 0.896160
vt 0.151589 0.163621
vt 0.694716 0.123091
vt 0.694716 0.959743
vt 0.103014 0.959743
vt 0.103014 0.123091
vt 0.183599 0.801294
vt 0.156707 0.801294
vt 0.156707 0.599601
vt 0.183599 0.599601
vt 0.884462 0.020584
vt 0.911354 0.020584
vt 0.911354 0.558433
vt 0.884462 0.558433
vt 0.224768 0.599601
vt 0.251660 0.599601
vt 0.251660 0.801294
vt 0.224768 0.801294
vt 0.816401 0.020584
vt 0.843293 0.020584
vt 0.843293 0.558432
vt 0.816401 0.558432
vt 0.559513 0.070426
vt 0.559513 0.847929
vt 0.267951 0.847929
vt 0.267951 0.070426
vt 0.730267 0.079610
vt 0.730267 0.983216
vt 0.391415 0.983216
vt 0.391415 0.079610
vn -1.0000 0.0000 0.0000
vn 0.0000 0.0000 -1.0000
vn 1.0000 -0.0000 0.0000
vn 0.0000 -0.0000 1.0000
vn 0.0000 -1.0000 -0.0000
vn 0.0000 1.0000 0.0000
usemtl None
s 1
f 1/1/1 2/2/1 3/3/1 4/4/1
f 4/5/2 3/6/2 5/7/2 6/8/2
f 6/9/3 5/10/3 7/11/3 8/12/3
f 8/13/4 7/14/4 2/15/4 1/16/4
f 4/17/5 6/18/5 8/19/5 1/20/5
f 5/21/6 3/22/6 2/23/6 7/24/6
f 9/25/1 10/26/1 11/27/1 12/28/1
f 12/29/2 11/30/2 13/31/2 14/32/2
f 14/33/3 13/34/3 15/35/3 16/36/3
f 16/37/4 15/38/4 10/39/4 9/40/4
f 12/41/5 14/42/5 16/43/5 9/44/5
f 13/45/6 11/46/6 10/47/6 15/48/6
