# Blender v2.93.5 OBJ File: ''
# www.blender.org
o Cube_Cube.001
v -4.299700 1.758941 4.299700
v -4.299700 10.358340 4.299700
v -4.299700 1.758941 -10.890426
v -4.299700 10.358340 -10.890426
v 4.299700 1.758941 4.299700
v 4.299700 10.358340 4.299700
v 4.299700 1.758941 -10.890426
v 4.299700 10.358340 -10.890426
v -4.299700 5.128735 4.299700
v -4.299700 5.128735 -10.890426
v 4.299700 5.128735 -10.890426
v 4.299700 5.128735 4.299700
v -4.299700 1.758941 -9.763628
v -4.299700 10.358340 -9.763628
v 4.299700 1.758941 -9.763628
v 4.299700 10.358340 -9.763628
v 4.299700 5.128735 -9.763628
v -4.299700 5.128735 -9.763628
v -4.299700 1.758941 3.091350
v 4.299700 10.358340 3.091350
v 4.299700 5.128735 3.091350
v -4.299700 10.358340 3.091350
v 4.299700 1.758941 3.091350
v -4.299700 5.128735 3.091350
v 3.217485 1.711211 -10.890426
v 2.601439 9.742295 -10.890426
v 3.217485 1.758941 4.299700
v 2.441465 9.582320 4.299700
v 2.441465 5.904755 4.299700
v 3.217485 4.951606 -10.890426
v 3.217485 10.358340 -9.763628
v 3.217485 1.758941 -9.763628
v 3.217485 10.358340 3.091350
v 3.217485 1.758941 3.091350
v -3.209618 1.711211 -10.890426
v -2.433597 9.582320 4.299700
v -2.433597 5.904755 4.299700
v -3.209618 1.758941 -9.763628
v -3.209618 1.758941 3.091350
v -2.593572 9.742295 -10.890426
v -3.209617 1.758941 4.299700
v -3.209617 4.951606 -10.890426
v -3.209617 10.358340 -9.763628
v -3.209617 10.358340 3.091350
v -4.299700 10.358340 3.091350
v -4.299700 10.358340 -9.763628
v -4.299700 5.128735 3.091350
v -4.299700 5.128735 -9.763628
v 3.217485 10.358340 -9.763628
v 4.132782 9.205801 -8.610931
v 4.042322 6.291292 -8.610931
v 4.203616 9.235455 1.968443
v 4.212785 6.252150 1.968353
v 3.217485 10.358340 3.091350
v -3.209617 10.358340 -9.763628
v -3.209617 10.358340 3.091350
v -4.277464 5.224034 -9.763628
v -4.277464 5.224034 3.091350
v 3.121678 5.000747 -10.867859
v -3.305424 5.000747 -10.867859
v -4.299700 5.128735 -10.890426
v -4.299700 1.758941 -10.890426
v -4.299700 5.128735 -9.763628
v -4.299700 1.758941 -9.763628
v 4.300527 1.721451 -9.762833
v 4.281113 1.721451 -10.760307
v 3.198898 1.673721 -10.760307
v 3.218312 1.721451 -9.762833
v 4.220870 5.333689 -9.839337
v 4.220870 5.333689 -10.836812
v 3.138656 5.285959 -10.836812
v 3.138656 5.333689 -9.839337
v 3.217485 5.053617 4.299700
v 4.299700 5.053617 4.299700
v 4.299700 5.053617 3.091350
v 3.217485 5.053617 3.091350
v -4.299700 6.174589 3.091350
v -4.299700 6.174589 4.299700
v -3.209618 6.174589 3.091350
v -3.209617 6.174589 4.299700
v -3.144866 4.994725 -10.851060
v -4.234948 5.042454 -10.851060
v -4.234948 5.042454 -9.724261
v -3.144866 5.042454 -9.724261
v -4.299700 7.743537 -3.336139
v -4.299697 5.155256 -9.792405
v -4.301467 5.155256 -9.792405
v -4.299698 10.349302 -9.792405
v -4.301467 10.349302 -9.792405
v -4.299698 5.155256 3.186187
v -4.301468 5.155256 3.186187
v -4.299698 10.349302 3.186187
v -4.301468 10.349302 3.186187
v 4.299700 10.358340 -9.763628
v 4.299700 5.128735 -9.763628
v 4.299700 10.358340 3.091350
v 4.299700 5.128735 3.091350
v 4.299700 9.531050 -8.936337
v 4.299700 5.956026 -8.936337
v 4.299700 9.531050 2.264060
v 4.299700 5.956026 2.264060
v 4.299700 9.531050 -8.936337
v 4.299700 5.956026 -8.936337
v 4.299700 9.531050 2.264060
v 4.299700 5.956026 2.264060
v 4.299700 9.531050 -8.936337
v 4.299700 5.956026 -8.936337
v 4.299700 9.531050 2.264060
v 4.299700 5.956026 2.264060
v 4.299700 9.531050 -8.936337
v 4.299700 5.956026 -8.936337
v 4.299700 9.531050 2.264060
v 4.299700 5.956026 2.264060
v 4.299700 9.531050 -8.936337
v 4.299700 5.956026 -8.936337
v 4.299700 9.531050 2.264060
v 4.299700 5.956026 2.264060
v -3.209617 10.358340 -10.890426
v 3.217485 10.358340 -10.890426
v -2.593572 5.744781 -10.890426
v 2.601439 5.744781 -10.890426
v -2.261077 6.077275 -11.012058
v 2.268945 6.077275 -11.012058
v -2.261077 9.409801 -11.012058
v 2.268945 9.409801 -11.012058
v 3.217485 10.358340 4.299700
v -3.209618 10.358340 4.299700
v 3.217485 5.128735 4.299700
v 2.063438 9.204294 4.332674
v -3.209618 5.128735 4.299700
v 2.063438 6.282781 4.332674
v -2.055571 9.204294 4.332674
v -2.055571 6.282781 4.332674
v 3.217485 5.128735 4.299700
v -3.209618 5.128735 4.299700
v 3.121678 5.000747 -10.867859
v -3.305424 5.000747 -10.867859
v 3.217485 5.105894 4.299892
v -3.209618 5.105894 4.299892
v 3.121678 4.977906 -10.867666
v -3.305424 4.977906 -10.867666
v -4.299700 10.358340 -3.335248
v 4.299700 10.358340 -3.335248
v 3.217485 10.358340 -3.335248
v -3.209617 10.358340 -3.335248
v 4.299700 9.531050 -3.335362
v 4.299700 5.956026 -3.335362
v 4.299700 9.531050 -3.335362
v 4.299700 5.956026 -3.335362
v 4.299700 9.531050 -3.335362
v 4.299700 5.956026 -3.335362
v 4.299700 9.531050 -3.335362
v 4.299700 5.956026 -3.335362
v 4.299700 9.531050 -3.335362
v 4.299700 5.956026 -3.335362
v 4.209465 9.235364 -3.039746
v 4.107971 6.261200 -3.039655
v 4.132782 9.205801 -3.660768
v 3.759896 9.531050 2.264060
v 4.042322 6.291292 -3.660768
v 3.759896 5.956026 2.264060
v 3.759896 9.531050 -8.936337
v 3.649245 5.966043 -8.936337
v 3.759896 9.531050 -3.335362
v 3.649245 5.966043 -3.335362
v -2.593572 5.744781 -10.467759
v 2.601439 5.744781 -10.467759
v -2.593572 9.742295 -10.467759
v 2.601439 9.742295 -10.467759
v 2.441465 9.582320 3.785491
v 2.441465 5.904755 3.785491
v -2.433597 9.582320 3.785491
v -2.433597 5.904755 3.785491
v -3.186334 1.681221 4.272103
v -3.186334 1.681221 3.063753
v 3.189234 1.731516 4.281326
v 3.189234 1.731516 3.072977
v 4.286206 1.757556 -9.745926
v 3.203991 1.709827 -9.745926
v -4.180676 1.719139 -10.874129
v -4.180676 1.766868 -9.747331
vt 0.472966 0.231455
vt 0.625000 0.231455
vt 0.625000 0.250000
vt 0.472966 0.250000
vt 0.472966 0.468538
vt 0.625000 0.468538
vt 0.625000 0.500000
vt 0.472966 0.500000
vt 0.472966 0.730113
vt 0.625000 0.730113
vt 0.625000 0.750000
vt 0.472966 0.750000
vt 0.472966 0.968309
vt 0.625000 0.968309
vt 0.625000 1.000000
vt 0.472966 1.000000
vt 0.375000 0.730113
vt 0.375000 0.750000
vt 0.375000 0.750000
vt 0.375000 0.730113
vt 0.843309 0.730113
vt 0.875000 0.730113
vt 0.875000 0.750000
vt 0.843309 0.750000
vt 0.375000 0.968309
vt 0.375000 1.000000
vt 0.375000 0.468538
vt 0.375000 0.500000
vt 0.125000 0.500000
vt 0.125000 0.518545
vt 0.125000 0.518545
vt 0.125000 0.500000
vt 0.625000 0.624344
vt 0.656462 0.624344
vt 0.656462 0.730113
vt 0.625000 0.730113
vt 0.472966 0.518545
vt 0.375000 0.518545
vt 0.843309 0.500000
vt 0.875000 0.500000
vt 0.875000 0.518545
vt 0.843309 0.518545
vt 0.375000 0.500000
vt 0.375000 0.468538
vt 0.625000 0.518545
vt 0.843309 0.730113
vt 0.875000 0.730113
vt 0.472966 0.000000
vt 0.625000 0.000000
vt 0.625000 0.019887
vt 0.472966 0.019887
vt 0.375000 0.000000
vt 0.375000 0.019887
vt 0.505631 0.629207
vt 0.592335 0.629208
vt 0.592349 0.711631
vt 0.505617 0.711631
vt 0.000000 0.000000
vt 0.000000 0.000000
vt 0.000000 0.000000
vt 0.000000 0.000000
vt 0.000000 0.000000
vt 0.000000 0.000000
vt 0.000000 0.000000
vt 0.000000 0.000000
vt 0.875000 0.518545
vt 0.843309 0.518545
vt 0.656462 0.500000
vt 0.656462 0.518545
vt 0.843309 0.624344
vt 0.472966 0.781462
vt 0.375000 0.781462
vt 0.656462 0.730113
vt 0.656462 0.750000
vt 0.625000 0.781462
vt 0.490875 0.450629
vt 0.490875 0.299600
vt 0.490875 0.299600
vt 0.490875 0.450629
vt 0.625000 0.281691
vt 0.472966 0.281691
vt 0.375000 1.000000
vt 0.375000 0.968309
vt 0.375000 0.250000
vt 0.375000 0.281691
vt 0.656462 0.518545
vt 0.125000 0.500000
vt 0.125000 0.518545
vt 0.875000 0.624344
vt 0.602440 0.945749
vt 0.495526 0.945749
vt 0.495526 0.945749
vt 0.602440 0.945749
vt 0.472966 0.231455
vt 0.625000 0.231455
vt 0.625000 0.019887
vt 0.472966 0.019887
vt 0.625000 0.518545
vt 0.000000 0.000000
vt 0.000000 0.000000
vt 0.000000 0.000000
vt 0.000000 0.000000
vt 0.472966 0.730113
vt 0.472966 0.518545
vt 0.472966 0.518545
vt 0.472966 0.730113
vt 0.000000 0.000000
vt 0.000000 0.000000
vt 0.000000 0.000000
vt 0.000000 0.000000
vt 0.375000 0.231455
vt 0.472966 0.231455
vt 0.472966 0.250000
vt 0.375000 0.250000
vt 0.000000 0.000000
vt 0.000000 0.000000
vt 0.000000 0.000000
vt 0.000000 0.000000
vt 0.000000 0.000000
vt 0.000000 0.000000
vt 0.000000 0.000000
vt 0.375000 0.518545
vt 0.000000 0.000000
vt 0.000000 0.000000
vt 0.000000 0.000000
vt 0.000000 0.000000
vt 0.343538 0.500000
vt 0.375000 0.500000
vt 0.375000 0.518545
vt 0.343538 0.518545
vt 0.375000 0.468538
vt 0.000000 0.000000
vt 0.343538 0.730113
vt 0.343538 0.750000
vt 0.375000 0.781462
vt 0.000000 0.000000
vt 0.000000 0.000000
vt 0.000000 0.000000
vt 0.000000 0.000000
vt 0.000000 0.000000
vt 0.000000 0.000000
vt 0.125000 0.730113
vt 0.156691 0.730113
vt 0.156691 0.750000
vt 0.125000 0.750000
vt 0.375000 0.019887
vt 0.375000 0.000000
vt 0.000000 0.000000
vt 0.000000 0.000000
vt 0.000000 0.000000
vt 0.000000 0.000000
vt 0.000000 0.000000
vt 0.000000 0.000000
vt 0.156691 0.500000
vt 0.156691 0.518545
vt 0.000000 0.000000
vt 0.000000 0.000000
vt 0.000000 0.000000
vt 0.000000 0.000000
vt 0.000000 0.000000
vt 0.375000 0.281691
vt 0.375000 0.250000
vt 0.548983 0.125671
vt 0.625000 0.125656
vt 0.375000 0.000000
vt 0.625000 0.000000
vt 0.625000 0.250000
vt 0.375000 0.250000
vt 0.625000 0.500000
vt 0.375000 0.500000
vt 0.625000 0.750000
vt 0.375000 0.750000
vt 0.625000 1.000000
vt 0.375000 1.000000
vt 0.125000 0.500000
vt 0.125000 0.750000
vt 0.875000 0.500000
vt 0.875000 0.750000
vt 0.600949 0.532161
vt 0.497017 0.532161
vt 0.600949 0.624342
vt 0.497017 0.624342
vt 0.497017 0.716497
vt 0.600949 0.716497
vt 0.000000 0.000000
vt 0.000000 0.000000
vt 0.000000 0.000000
vt 0.000000 0.000000
vt 0.450712 0.468256
vt 0.600949 0.532161
vt 0.372763 0.468256
vt 0.497017 0.716497
vt 0.000000 0.000000
vt 0.000000 0.000000
vt 0.000000 0.000000
vt 0.000000 0.000000
vt 0.000000 0.000000
vt 0.000000 0.000000
vt 0.300475 0.312171
vt 0.600949 0.532161
vt 0.248508 0.312171
vt 0.497017 0.716497
vt 0.000000 0.000000
vt 0.000000 0.000000
vt 0.000000 0.000000
vt 0.000000 0.000000
vt 0.450712 0.468256
vt 0.600949 0.532161
vt 0.372763 0.468256
vt 0.497017 0.716497
vt 0.000000 0.000000
vt 0.000000 0.000000
vt 0.000000 0.000000
vt 0.000000 0.000000
vt 0.600949 0.624342
vt 0.600949 0.532161
vt 0.497017 0.624342
vt 0.497017 0.716497
vt 0.000000 0.000000
vt 0.000000 0.000000
vt 0.600949 0.532161
vt 0.497017 0.532161
vt 0.497017 0.532161
vt 0.600949 0.624342
vt 0.497017 0.624342
vt 0.497017 0.716497
vt 0.600949 0.716497
vt 0.600949 0.716497
vt 0.607090 0.450629
vt 0.607090 0.299600
vt 0.500542 0.309266
vt 0.597424 0.309266
vt 0.597424 0.440962
vt 0.500542 0.440962
vt 0.607090 0.450629
vt 0.607090 0.299600
vt 0.602440 0.804022
vt 0.495526 0.804022
vt 0.506516 0.815012
vt 0.591450 0.815012
vt 0.591450 0.934759
vt 0.506516 0.934759
vt 0.602440 0.804022
vt 0.495526 0.804022
vt 0.000000 0.000000
vt 0.000000 0.000000
vt 0.000000 0.000000
vt 0.000000 0.000000
vt 0.000000 0.000000
vt 0.472966 0.968309
vt 0.472966 0.781462
vt 0.000000 0.000000
vt 0.472966 0.781462
vt 0.472966 0.968309
vt 0.472966 0.968309
vt 0.472966 0.781462
vt 0.000000 0.000000
vt 0.000000 0.000000
vt 0.497017 0.532161
vt 0.600949 0.716497
vt 0.497017 0.532161
vt 0.600949 0.716497
vt 0.497017 0.532161
vt 0.600949 0.716497
vt 0.506499 0.537516
vt 0.591467 0.537516
vt 0.591467 0.618986
vt 0.506499 0.618986
vt 0.375000 0.000000
vt 0.375000 0.019887
vt 0.375000 0.750000
vt 0.375000 0.730113
vt 0.375000 0.468538
vt 0.375000 0.500000
vt 0.000000 0.000000
vt 0.000000 0.000000
vn -1.0000 0.0000 0.0000
vn 0.0000 0.0000 -1.0000
vn 1.0000 0.0000 0.0000
vn 0.0000 0.0000 1.0000
vn 0.0000 1.0000 0.0000
vn 0.0424 -0.9616 -0.2710
vn 0.9998 -0.0155 -0.0099
vn 0.9998 -0.0197 0.0000
vn 0.0111 0.9999 0.0000
vn 0.9998 0.0191 -0.0106
vn 0.9695 -0.2451 -0.0089
vn -0.9736 0.2282 -0.0014
vn 0.0000 0.0212 0.9998
vn 0.0220 -0.9995 0.0239
vn -0.0009 0.0212 0.9998
vn 0.0000 -0.0212 -0.9998
vn -0.9998 -0.0192 0.0097
vn 0.0000 -1.0000 0.0000
vn -0.0219 -0.9995 0.0212
vn 0.0000 0.0120 -0.9999
vn -0.9998 0.0197 -0.0008
vn -0.0005 -0.0120 0.9999
vn 0.0084 1.0000 0.0008
vn 1.0000 -0.0000 -0.0063
vn 0.0000 -1.0000 0.0084
vn 0.0000 0.0084 1.0000
vn -1.0000 0.0001 0.0063
vn 0.0000 -0.0084 -1.0000
vn 0.0154 0.9999 0.0000
vn 0.9995 -0.0310 0.0000
vn 0.5520 0.8339 0.0003
vn 0.5441 -0.8389 -0.0126
vn 0.5506 0.0008 0.8348
vn 0.5455 -0.0177 -0.8379
vn 0.6474 -0.0201 -0.7619
vn 0.6573 0.7536 0.0000
vn 0.6375 -0.7704 0.0000
vn 0.6474 -0.0201 0.7619
vn 0.0000 -0.8534 -0.5213
vn 0.0000 0.8534 -0.5213
vn 0.8534 0.0000 -0.5213
vn -0.8534 -0.0000 -0.5213
vn 0.8227 0.0000 0.5684
vn 0.0000 0.8227 0.5684
vn 0.0000 -0.8227 0.5684
vn -0.8227 0.0000 0.5684
vn 0.0696 0.9976 0.0000
vn 0.0247 -0.9997 0.0000
vn -0.0440 0.9984 -0.0353
vn 0.0074 0.9991 -0.0423
s off
f 18/1/1 14/2/1 4/3/1 10/4/1
f 30/5/2 119/6/2 8/7/2 11/8/2
f 21/9/3 20/10/3 6/11/3 12/12/3
f 130/13/4 127/14/4 2/15/4 9/16/4
f 23/17/1 5/18/1 74/19/1 75/20/1
f 44/21/5 22/22/5 2/23/5 127/24/5
f 41/25/4 130/13/4 9/16/4 1/26/4
f 23/17/3 21/9/3 12/12/3 5/18/3
f 25/27/2 30/5/2 11/8/2 7/28/2
f 3/29/4 13/30/4 64/31/4 62/32/4
f 143/33/5 144/34/5 54/35/5 96/36/5
f 7/28/3 11/8/3 17/37/3 15/38/3
f 118/39/5 4/40/5 14/41/5 43/42/5
f 25/27/6 7/28/6 66/43/6 67/44/6
f 11/8/3 8/7/3 16/45/3 17/37/3
f 22/22/4 44/21/4 56/46/4 45/47/4
f 9/48/1 2/49/1 22/50/1 24/51/1
f 1/52/1 9/48/1 24/51/1 19/53/1
f 157/54/7 156/55/7 52/56/7 53/57/7
f 17/58/4 16/59/4 94/60/4 95/61/4
f 20/62/4 21/63/4 97/64/4 96/65/4
f 43/42/4 14/41/4 46/66/4 55/67/4
f 8/7/5 119/68/5 31/69/5 16/45/5
f 144/34/5 145/70/5 56/46/5 54/35/5
f 5/18/4 12/12/4 128/71/4 27/72/4
f 20/10/5 33/73/5 126/74/5 6/11/5
f 12/12/4 6/11/4 126/75/4 128/71/4
f 121/76/5 120/77/5 166/78/5 167/79/5
f 10/4/2 4/3/2 118/80/2 42/81/2
f 41/25/2 1/26/2 78/82/2 80/83/2
f 3/84/2 10/4/2 42/81/2 35/85/2
f 31/69/4 43/42/4 55/67/4 49/86/4
f 13/30/8 3/29/8 82/87/8 83/88/8
f 119/68/5 118/39/5 43/42/5 31/69/5
f 145/70/5 142/89/5 45/47/5 56/46/5
f 33/73/5 44/21/5 127/24/5 126/74/5
f 36/90/3 37/91/3 173/92/3 172/93/3
f 44/21/4 33/73/4 54/35/4 56/46/4
f 21/63/4 17/58/4 95/61/4 97/64/4
f 33/73/4 20/10/4 96/36/4 54/35/4
f 14/2/4 18/1/4 48/94/4 46/95/4
f 24/51/4 22/50/4 45/96/4 47/97/4
f 16/45/4 31/69/4 49/86/4 94/98/4
f 18/99/4 24/100/4 47/101/4 48/102/4
f 97/103/9 95/104/9 57/105/9 58/106/9
f 130/107/4 60/108/4 137/109/4 135/110/4
f 64/111/1 63/112/1 61/113/1 62/114/1
f 10/4/4 3/84/4 62/114/4 61/113/4
f 18/1/4 10/4/4 61/113/4 63/112/4
f 13/115/4 18/99/4 63/116/4 64/117/4
f 68/118/10 67/119/10 71/120/10 72/121/10
f 7/28/11 15/38/11 65/122/11 66/43/11
f 32/123/12 25/124/12 67/119/12 68/118/12
f 15/125/13 32/123/13 68/118/13 65/126/13
f 71/127/14 70/128/14 69/129/14 72/130/14
f 67/44/15 66/43/15 70/128/15 71/131/15
f 65/126/16 68/118/16 72/121/16 69/132/16
f 66/43/17 65/122/17 69/129/17 70/128/17
f 76/133/18 75/20/18 74/19/18 73/134/18
f 5/18/2 27/72/2 73/135/2 74/19/2
f 34/136/4 23/137/4 75/138/4 76/139/4
f 27/140/3 34/136/3 76/139/3 73/141/3
f 77/142/18 79/143/18 80/144/18 78/145/18
f 1/52/3 19/53/3 77/146/3 78/147/3
f 19/148/4 39/149/4 79/150/4 77/151/4
f 39/149/1 41/152/1 80/153/1 79/150/1
f 82/87/19 81/154/19 84/155/19 83/88/19
f 38/156/20 13/115/20 83/157/20 84/158/20
f 35/159/21 38/156/21 84/158/21 81/160/21
f 3/84/22 35/85/22 81/161/22 82/162/22
f 47/97/1 45/96/1 85/163/1
f 45/96/1 142/164/1 46/95/1 85/163/1
f 46/95/1 48/94/1 85/163/1
f 48/94/1 47/97/1 85/163/1
f 86/165/2 87/166/2 89/167/2 88/168/2
f 88/168/5 89/167/5 93/169/5 92/170/5
f 92/170/4 93/169/4 91/171/4 90/172/4
f 90/172/18 91/171/18 87/173/18 86/174/18
f 88/175/3 92/170/3 90/172/3 86/176/3
f 93/169/1 89/177/1 87/178/1 91/171/1
f 98/179/3 99/180/3 95/104/3 94/98/3
f 146/181/3 98/179/3 94/98/3 143/33/3
f 99/180/3 147/182/3 101/183/3 97/103/3 95/104/3
f 101/183/3 100/184/3 96/36/3 97/103/3
f 102/185/4 103/186/4 99/187/4 98/188/4
f 148/189/4 102/190/4 98/179/4 146/181/4
f 149/191/4 105/192/4 101/183/4 147/182/4
f 105/193/4 104/194/4 100/195/4 101/196/4
f 106/197/4 107/198/4 103/186/4 102/185/4
f 150/199/4 106/200/4 102/190/4 148/189/4
f 151/201/4 109/202/4 105/192/4 149/191/4
f 109/203/4 108/204/4 104/194/4 105/193/4
f 110/205/4 111/206/4 107/198/4 106/197/4
f 152/207/4 110/208/4 106/200/4 150/199/4
f 153/209/4 113/210/4 109/202/4 151/201/4
f 113/211/4 112/212/4 108/204/4 109/203/4
f 114/213/4 115/214/4 111/206/4 110/205/4
f 154/215/4 114/216/4 110/208/4 152/207/4
f 155/217/4 117/218/4 113/210/4 153/209/4
f 117/219/4 116/220/4 112/212/4 113/211/4
f 162/221/4 163/222/4 115/223/4 114/216/4
f 164/224/18 162/221/18 114/216/18 154/215/18
f 165/225/23 161/226/23 117/218/23 155/217/23
f 161/226/2 159/227/2 116/228/2 117/218/2
f 26/229/2 40/230/2 118/80/2 119/6/2
f 120/77/2 121/76/2 30/5/2 42/81/2
f 121/76/2 26/229/2 119/6/2 30/5/2
f 40/230/2 120/77/2 42/81/2 118/80/2
f 122/231/2 124/232/2 125/233/2 123/234/2
f 26/229/1 121/76/1 167/79/1 169/235/1
f 40/230/18 26/229/18 169/235/18 168/236/18
f 120/77/3 40/230/3 168/236/3 166/78/3
f 28/237/4 29/238/4 128/71/4 126/75/4
f 36/90/4 28/237/4 126/75/4 127/14/4
f 29/238/4 37/91/4 130/13/4 128/71/4
f 37/91/4 36/90/4 127/14/4 130/13/4
f 131/239/4 129/240/4 132/241/4 133/242/4
f 28/237/18 36/90/18 172/93/18 170/243/18
f 37/91/5 29/238/5 171/244/5 173/92/5
f 29/238/1 28/237/1 170/243/1 171/244/1
f 136/245/24 134/246/24 138/247/24 140/248/24
f 60/108/4 59/249/4 136/245/4 137/109/4
f 128/71/4 130/13/4 135/250/4 134/251/4
f 59/249/4 128/252/4 134/246/4 136/245/4
f 138/253/25 139/254/25 141/255/25 140/256/25
f 134/251/26 135/250/26 139/254/26 138/253/26
f 135/110/27 137/109/27 141/257/27 139/258/27
f 137/109/28 136/245/28 140/248/28 141/257/28
f 163/222/29 165/225/29 155/217/29 115/223/29
f 159/227/18 164/224/18 154/215/18 116/228/18
f 115/223/4 155/217/4 153/209/4 111/259/4
f 116/228/4 154/215/4 152/207/4 112/260/4
f 111/259/4 153/209/4 151/201/4 107/261/4
f 112/260/4 152/207/4 150/199/4 108/262/4
f 107/261/4 151/201/4 149/191/4 103/263/4
f 108/262/4 150/199/4 148/189/4 104/264/4
f 103/263/4 149/191/4 147/182/4 99/180/4
f 104/264/4 148/189/4 146/181/4 100/184/4
f 100/184/3 146/181/3 143/33/3 96/36/3
f 55/67/5 46/66/5 142/89/5 145/70/5
f 49/86/5 55/67/5 145/70/5 144/34/5
f 51/265/30 50/266/30 158/267/30 160/268/30
f 94/98/5 49/86/5 144/34/5 143/33/5
f 52/56/31 156/55/31 164/224/31 159/227/31
f 157/54/32 53/57/32 161/226/32 165/225/32
f 53/57/33 52/56/33 159/227/33 161/226/33
f 156/55/34 157/54/34 165/225/34 164/224/34
f 50/266/35 51/265/35 163/222/35 162/221/35
f 158/267/36 50/266/36 162/221/36 164/224/36
f 51/265/37 160/268/37 165/225/37 163/222/37
f 160/268/38 158/267/38 164/224/38 165/225/38
f 122/231/39 123/234/39 167/79/39 166/78/39
f 125/233/40 124/232/40 168/236/40 169/235/40
f 123/234/41 125/233/41 169/235/41 167/79/41
f 124/232/42 122/231/42 166/78/42 168/236/42
f 129/240/43 131/239/43 171/244/43 170/243/43
f 132/241/44 129/240/44 170/243/44 172/93/44
f 131/239/45 133/242/45 173/92/45 171/244/45
f 133/242/46 132/241/46 172/93/46 173/92/46
f 19/53/47 1/52/47 174/269/47 175/270/47
f 23/17/48 5/18/48 176/271/48 177/272/48
f 66/43/49 67/44/49 179/273/49 178/274/49
f 38/156/50 35/159/50 180/275/50 181/276/50
