# Blender v2.93.5 OBJ File: 'proyecto.blend'
# www.blender.org
o Cube.012_Cube.016
v -0.698928 -1.594109 10.259190
v -0.992735 8.847683 11.191319
v -0.698928 -1.594109 -10.109411
v -0.992735 8.847683 -11.048115
v 5.461051 -1.594109 10.259190
v 5.733034 8.847683 11.191319
v 5.461051 -1.594109 -10.109411
v 5.733034 8.847683 -11.048115
v -0.698928 -1.594109 -9.251406
v -0.992735 8.847683 -10.111303
v 5.805655 -1.594109 -9.251406
v 5.733034 8.847683 -10.111303
v -0.698928 -1.594109 9.544312
v 5.733034 8.847683 10.410782
v -0.992735 8.847683 10.410782
v 5.805655 -1.594109 9.544312
v -0.992735 8.214706 11.191319
v -0.992735 8.214706 -11.048115
v 5.733034 8.214706 -11.048115
v 5.733034 8.214706 11.191319
v 6.770785 8.214706 -10.111303
v -0.992735 8.214706 -10.111303
v -0.992735 8.214706 10.410782
v 6.770785 8.214706 10.410782
v -0.596898 7.628830 -10.125448
v 5.563082 7.628830 -10.125448
v 5.563082 7.628830 10.243151
v 5.907685 7.628830 -9.267443
v -0.596898 7.628830 -9.267443
v -0.596898 7.628830 9.528273
v 5.907685 7.628830 9.528273
v -0.596898 7.628830 10.243151
vt 0.611084 0.239469
vt 0.625000 0.239469
vt 0.625000 0.250000
vt 0.611084 0.250000
vt 0.625000 0.500000
vt 0.611084 0.500000
vt 0.611085 0.741226
vt 0.625000 0.741226
vt 0.625000 0.750000
vt 0.611084 0.750000
vt 0.625000 1.000000
vt 0.611085 1.000000
vt 0.125000 0.741226
vt 0.375000 0.741226
vt 0.375000 0.750000
vt 0.125000 0.750000
vt 0.875000 0.741226
vt 0.875000 0.750000
vt 0.875000 0.500000
vt 0.875000 0.510531
vt 0.625000 0.510531
vt 0.125000 0.500000
vt 0.375000 0.500000
vt 0.375000 0.510531
vt 0.125000 0.510531
vt 0.611085 0.510531
vt 0.611085 0.008774
vt 0.625000 0.008774
vt 0.611085 0.000000
vt 0.625000 0.000000
vt 0.601233 0.510531
vt 0.601233 0.741226
vt 0.601233 0.000000
vt 0.601233 0.008774
vt 0.601233 0.239469
vt 0.601233 0.500000
vt 0.601233 0.750000
vt 0.601233 1.000000
vt 0.601233 0.250000
vt 0.375000 0.239469
vt 0.375000 0.250000
vt 0.375000 1.000000
vt 0.375000 0.008774
vt 0.375000 0.000000
vn -1.0000 0.0000 0.0000
vn 0.0000 0.0000 -1.0000
vn 0.6878 0.5638 0.4572
vn 0.0000 0.0000 1.0000
vn 0.0000 -1.0000 0.0000
vn 0.0000 1.0000 0.0000
vn 0.7109 0.5827 -0.3937
vn 0.5207 0.8537 0.0000
vn 0.5616 -0.8274 0.0000
vn -0.8286 -0.5598 0.0000
vn 0.4164 -0.8507 -0.3207
vn 0.0000 -0.8507 0.5257
vn 0.3710 -0.8630 0.3430
vn 0.0000 -0.8442 -0.5360
vn -0.9999 0.0111 0.0000
vn 0.0000 -0.0017 -1.0000
vn 0.9008 -0.0092 0.4342
vn 0.0000 0.0017 1.0000
vn 0.9279 -0.0109 -0.3727
vn 0.9999 -0.0111 0.0000
s off
f 22/1/1 10/2/1 4/3/1 18/4/1
f 18/4/2 4/3/2 8/5/2 19/6/2
f 24/7/3 14/8/3 6/9/3 20/10/3
f 20/10/4 6/9/4 2/11/4 17/12/4
f 13/13/5 16/14/5 5/15/5 1/16/5
f 14/8/6 15/17/6 2/18/6 6/9/6
f 8/5/6 4/19/6 10/20/6 12/21/6
f 3/22/5 7/23/5 11/24/5 9/25/5
f 19/6/7 8/5/7 12/21/7 21/26/7
f 23/27/1 15/28/1 10/2/1 22/1/1
f 17/29/1 2/30/1 15/28/1 23/27/1
f 12/21/6 10/20/6 15/17/6 14/8/6
f 9/25/5 11/24/5 16/14/5 13/13/5
f 21/26/8 12/21/8 14/8/8 24/7/8
f 28/31/9 21/26/9 24/7/9 31/32/9
f 32/33/10 17/29/10 23/27/10 30/34/10
f 30/34/10 23/27/10 22/1/10 29/35/10
f 26/36/11 19/6/11 21/26/11 28/31/11
f 27/37/12 20/10/12 17/12/12 32/38/12
f 31/32/13 24/7/13 20/10/13 27/37/13
f 25/39/14 18/4/14 19/6/14 26/36/14
f 29/35/10 22/1/10 18/4/10 25/39/10
f 9/40/15 29/35/15 25/39/15 3/41/15
f 3/41/16 25/39/16 26/36/16 7/23/16
f 16/14/17 31/32/17 27/37/17 5/15/17
f 5/15/18 27/37/18 32/38/18 1/42/18
f 7/23/19 26/36/19 28/31/19 11/24/19
f 13/43/15 30/34/15 29/35/15 9/40/15
f 1/44/15 32/33/15 30/34/15 13/43/15
f 11/24/20 28/31/20 31/32/20 16/14/20
