# Blender v2.93.5 OBJ File: 'modelos2.blend'
# www.blender.org
mtllib muros.mtl
o Muros_Muro_pasillo24_Cube.004
v -5.600000 5.199997 16.600000
v -6.400000 5.199997 16.600000
v -6.400000 5.199997 17.400000
v -5.600000 5.199997 17.400000
v -5.600000 -0.000003 17.400000
v -6.400000 -0.000003 17.400000
v -6.400000 -0.000003 16.600000
v -5.600000 -0.000003 16.600000
v -5.600000 5.199996 20.600000
v -6.400000 5.199996 20.600000
v -6.400000 5.199996 21.400000
v -5.600000 5.199996 21.400000
v -5.600000 -0.000003 21.400000
v -6.400000 -0.000003 21.400000
v -6.400000 -0.000003 20.600000
v -5.600000 -0.000003 20.600000
v -10.600000 5.199996 20.600000
v -11.400000 5.199996 20.600000
v -11.400000 5.199996 21.400000
v -10.600000 5.199996 21.400000
v -10.600000 -0.000003 21.400000
v -11.400000 -0.000003 21.400000
v -11.400000 -0.000003 20.600000
v -10.600000 -0.000003 20.600000
v -10.600000 5.199997 16.600000
v -11.400000 5.199997 16.600000
v -11.400000 5.199997 17.400000
v -10.600000 5.199997 17.400000
v -10.600000 -0.000003 17.400000
v -11.400000 -0.000003 17.400000
v -11.400000 -0.000003 16.600000
v -10.600000 -0.000003 16.600000
vt 0.625000 0.500000
vt 0.875000 0.500000
vt 0.875000 0.750000
vt 0.625000 0.750000
vt 0.004786 0.976112
vt 0.004786 0.009575
vt 0.254786 0.009575
vt 0.254786 0.976112
vt 0.740437 0.970692
vt 0.740437 0.019735
vt 0.990437 0.019735
vt 0.990437 0.970692
vt 0.125000 0.500000
vt 0.375000 0.500000
vt 0.375000 0.750000
vt 0.125000 0.750000
vt 0.298002 0.917112
vt 0.298002 0.060602
vt 0.463150 0.060602
vt 0.463150 0.917112
vt 0.084926 -0.040074
vt 0.915074 -0.040074
vt 0.915074 0.790074
vt 0.084926 0.790074
vt 0.625000 0.500000
vt 0.875000 0.500000
vt 0.875000 0.750000
vt 0.625000 0.750000
vt 0.375000 0.750000
vt 0.625000 1.000000
vt 0.375000 1.000000
vt 0.735660 0.975859
vt 0.735660 0.067115
vt 0.985660 0.067115
vt 0.985660 0.975859
vt 0.125000 0.500000
vt 0.375000 0.500000
vt 0.125000 0.750000
vt 0.353504 0.992670
vt 0.353504 -0.014956
vt 0.603504 -0.014956
vt 0.603504 0.992670
vt 0.358281 0.988273
vt 0.358281 0.019683
vt 0.608281 0.019683
vt 0.608281 0.988273
vt 0.625000 0.500000
vt 0.875000 0.500000
vt 0.875000 0.750000
vt 0.625000 0.750000
vt 0.375000 0.750000
vt 0.625000 1.000000
vt 0.375000 1.000000
vt 0.081218 0.978974
vt 0.081218 0.025785
vt 0.331218 0.025785
vt 0.331218 0.978974
vt 0.125000 0.500000
vt 0.375000 0.500000
vt 0.125000 0.750000
vt 0.298569 0.973571
vt 0.298569 0.008919
vt 0.548569 0.008919
vt 0.548569 0.973571
vt 0.745214 0.948616
vt 0.745214 -0.002761
vt 0.995214 -0.002761
vt 0.995214 0.948616
vt 0.625000 0.500000
vt 0.875000 0.500000
vt 0.875000 0.750000
vt 0.625000 0.750000
vt 0.145706 0.976465
vt 0.145706 0.014000
vt 0.395706 0.014000
vt 0.395706 0.976465
vt 0.231691 0.981592
vt 0.231691 0.032720
vt 0.481691 0.032720
vt 0.481691 0.981592
vt 0.125000 0.500000
vt 0.375000 0.500000
vt 0.375000 0.750000
vt 0.125000 0.750000
vt 0.339173 0.981813
vt 0.339173 0.005454
vt 0.589173 0.005454
vt 0.589173 0.981813
vt 0.375000 0.250000
vt 0.625000 0.250000
vn 0.0000 1.0000 0.0000
vn 0.0000 0.0000 1.0000
vn -1.0000 0.0000 0.0000
vn 0.0000 -1.0000 -0.0000
vn 1.0000 0.0000 0.0000
vn 0.0000 0.0000 -1.0000
usemtl muros
s 1
f 1/1/1 2/2/1 3/3/1 4/4/1
f 5/5/2 4/6/2 3/7/2 6/8/2
f 6/9/3 3/10/3 2/11/3 7/12/3
f 7/13/4 8/14/4 5/15/4 6/16/4
f 8/17/5 1/18/5 4/19/5 5/20/5
f 7/21/6 2/22/6 1/23/6 8/24/6
f 9/25/1 10/26/1 11/27/1 12/28/1
f 13/29/2 12/28/2 11/30/2 14/31/2
f 14/32/3 11/33/3 10/34/3 15/35/3
f 15/36/4 16/37/4 13/29/4 14/38/4
f 16/39/5 9/40/5 12/41/5 13/42/5
f 15/43/6 10/44/6 9/45/6 16/46/6
f 17/47/1 18/48/1 19/49/1 20/50/1
f 21/51/2 20/50/2 19/52/2 22/53/2
f 22/54/3 19/55/3 18/56/3 23/57/3
f 23/58/4 24/59/4 21/51/4 22/60/4
f 24/61/5 17/62/5 20/63/5 21/64/5
f 23/65/6 18/66/6 17/67/6 24/68/6
f 25/69/1 26/70/1 27/71/1 28/72/1
f 29/73/2 28/74/2 27/75/2 30/76/2
f 30/77/3 27/78/3 26/79/3 31/80/3
f 31/81/4 32/82/4 29/83/4 30/84/4
f 32/85/5 25/86/5 28/87/5 29/88/5
f 31/89/6 26/90/6 25/69/6 32/82/6
