# Blender v2.93.5 OBJ File: 'modelos2.blend'
# www.blender.org
mtllib techo1.mtl
o techo1_Techo_pasillo11_Plano.029
v -2.000000 4.599997 17.000000
v 2.000000 4.599997 17.000000
v 2.000000 4.600000 -3.999999
v -2.000000 4.600000 -3.999999
v -4.000000 4.599998 11.000001
v -2.000000 4.599998 11.000001
v -2.000000 4.599999 4.000001
v -4.000000 4.599999 4.000001
vt 0.000000 0.000000
vt 1.000000 0.000000
vt 1.000000 1.000000
vt 0.000000 1.000000
vt 0.000000 0.000000
vt 1.000000 0.000000
vt 1.000000 1.000000
vt 0.000000 1.000000
vn 0.0000 1.0000 0.0000
usemtl None.003
s 1
f 1/1/1 2/2/1 3/3/1 4/4/1
f 5/5/1 6/6/1 7/7/1 8/8/1
